<svg xmlns="http://www.w3.org/2000/svg" xmlns:xlink="http://www.w3.org/1999/xlink" width="500" zoomAndPan="magnify" viewBox="0 0 375 374.999991" height="500" preserveAspectRatio="xMidYMid meet" version="1.0"><defs><g/></defs><g fill="#000000" fill-opacity="1"><g transform="translate(87.61237, 223.742111)"><g><path d="M 9.921875 -17.359375 C 11.140625 -17.359375 12.328125 -17.125 13.484375 -16.65625 C 14.648438 -16.1875 15.648438 -15.53125 16.484375 -14.6875 L 14.78125 -12.5625 C 14.15625 -13.238281 13.414062 -13.773438 12.5625 -14.171875 C 11.707031 -14.566406 10.84375 -14.765625 9.96875 -14.765625 C 8.238281 -14.765625 6.773438 -14.175781 5.578125 -13 C 4.390625 -11.820312 3.796875 -10.382812 3.796875 -8.6875 C 3.796875 -6.976562 4.390625 -5.535156 5.578125 -4.359375 C 6.773438 -3.179688 8.238281 -2.59375 9.96875 -2.59375 C 11.769531 -2.59375 13.375 -3.273438 14.78125 -4.640625 L 16.515625 -2.71875 C 15.628906 -1.84375 14.59375 -1.148438 13.40625 -0.640625 C 12.21875 -0.128906 11.023438 0.125 9.828125 0.125 C 7.296875 0.125 5.164062 -0.71875 3.4375 -2.40625 C 1.707031 -4.09375 0.84375 -6.179688 0.84375 -8.671875 C 0.84375 -11.117188 1.71875 -13.175781 3.46875 -14.84375 C 5.21875 -16.519531 7.367188 -17.359375 9.921875 -17.359375 Z M 9.921875 -17.359375 "/></g></g></g><g fill="#000000" fill-opacity="1"><g transform="translate(107.898583, 223.742111)"><g><path d="M 3.484375 -14.84375 C 5.242188 -16.519531 7.414062 -17.359375 10 -17.359375 C 12.582031 -17.359375 14.753906 -16.519531 16.515625 -14.84375 C 18.273438 -13.175781 19.15625 -11.109375 19.15625 -8.640625 C 19.15625 -6.171875 18.273438 -4.09375 16.515625 -2.40625 C 14.753906 -0.71875 12.582031 0.125 10 0.125 C 7.414062 0.125 5.242188 -0.71875 3.484375 -2.40625 C 1.722656 -4.09375 0.84375 -6.171875 0.84375 -8.640625 C 0.84375 -11.109375 1.722656 -13.175781 3.484375 -14.84375 Z M 10.015625 -14.734375 C 8.304688 -14.734375 6.84375 -14.144531 5.625 -12.96875 C 4.40625 -11.789062 3.796875 -10.347656 3.796875 -8.640625 C 3.796875 -6.929688 4.410156 -5.476562 5.640625 -4.28125 C 6.867188 -3.09375 8.328125 -2.5 10.015625 -2.5 C 11.710938 -2.5 13.160156 -3.09375 14.359375 -4.28125 C 15.566406 -5.476562 16.171875 -6.929688 16.171875 -8.640625 C 16.171875 -10.347656 15.566406 -11.789062 14.359375 -12.96875 C 13.160156 -14.144531 11.710938 -14.734375 10.015625 -14.734375 Z M 10.015625 -14.734375 "/></g></g></g><g fill="#000000" fill-opacity="1"><g transform="translate(130.97314, 223.742111)"><g><path d="M 20.546875 0 L 17.84375 0 L 17.828125 -12.90625 L 12.375 -1.796875 L 10.46875 -1.796875 L 5.015625 -12.90625 L 5.015625 0 L 2.265625 0 L 2.265625 -17.28125 L 5.734375 -17.28125 L 11.4375 -5.796875 L 17.109375 -17.28125 L 20.546875 -17.28125 Z M 20.546875 0 "/></g></g></g><g fill="#000000" fill-opacity="1"><g transform="translate(156.885388, 223.742111)"><g><path d="M 20.546875 0 L 17.84375 0 L 17.828125 -12.90625 L 12.375 -1.796875 L 10.46875 -1.796875 L 5.015625 -12.90625 L 5.015625 0 L 2.265625 0 L 2.265625 -17.28125 L 5.734375 -17.28125 L 11.4375 -5.796875 L 17.109375 -17.28125 L 20.546875 -17.28125 Z M 20.546875 0 "/></g></g></g><g fill="#000000" fill-opacity="1"><g transform="translate(182.797627, 223.742111)"><g><path d="M 13.4375 -3.90625 L 4.71875 -3.90625 L 3.0625 0 L 0.03125 0 L 7.65625 -17.28125 L 10.640625 -17.28125 L 18.1875 0 L 15.078125 0 Z M 12.3125 -6.5 L 9.0625 -14.171875 L 5.796875 -6.5 Z M 12.3125 -6.5 "/></g></g></g><g fill="#000000" fill-opacity="1"><g transform="translate(204.095542, 223.742111)"><g><path d="M 17.25 0 L 14.390625 0 L 5.1875 -12.390625 L 5.1875 0 L 2.265625 0 L 2.265625 -17.28125 L 5.140625 -17.28125 L 14.390625 -4.859375 L 14.390625 -17.28125 L 17.25 -17.28125 Z M 17.25 0 "/></g></g></g><g fill="#000000" fill-opacity="1"><g transform="translate(226.725936, 223.742111)"><g><path d="M 2.265625 -17.28125 L 9.359375 -17.28125 C 11.941406 -17.28125 14.078125 -16.460938 15.765625 -14.828125 C 17.453125 -13.203125 18.296875 -11.140625 18.296875 -8.640625 C 18.296875 -6.140625 17.445312 -4.070312 15.75 -2.4375 C 14.050781 -0.8125 11.894531 0 9.28125 0 L 2.265625 0 Z M 5.1875 -14.671875 L 5.1875 -2.609375 L 9.4375 -2.609375 C 11.125 -2.609375 12.53125 -3.171875 13.65625 -4.296875 C 14.789062 -5.429688 15.359375 -6.867188 15.359375 -8.609375 C 15.359375 -10.359375 14.773438 -11.804688 13.609375 -12.953125 C 12.453125 -14.097656 11.019531 -14.671875 9.3125 -14.671875 Z M 5.1875 -14.671875 "/></g></g></g><g fill="#000000" fill-opacity="1"><g transform="translate(248.936841, 223.742111)"><g><path d="M 3.484375 -14.84375 C 5.242188 -16.519531 7.414062 -17.359375 10 -17.359375 C 12.582031 -17.359375 14.753906 -16.519531 16.515625 -14.84375 C 18.273438 -13.175781 19.15625 -11.109375 19.15625 -8.640625 C 19.15625 -6.171875 18.273438 -4.09375 16.515625 -2.40625 C 14.753906 -0.71875 12.582031 0.125 10 0.125 C 7.414062 0.125 5.242188 -0.71875 3.484375 -2.40625 C 1.722656 -4.09375 0.84375 -6.171875 0.84375 -8.640625 C 0.84375 -11.109375 1.722656 -13.175781 3.484375 -14.84375 Z M 10.015625 -14.734375 C 8.304688 -14.734375 6.84375 -14.144531 5.625 -12.96875 C 4.40625 -11.789062 3.796875 -10.347656 3.796875 -8.640625 C 3.796875 -6.929688 4.410156 -5.476562 5.640625 -4.28125 C 6.867188 -3.09375 8.328125 -2.5 10.015625 -2.5 C 11.710938 -2.5 13.160156 -3.09375 14.359375 -4.28125 C 15.566406 -5.476562 16.171875 -6.929688 16.171875 -8.640625 C 16.171875 -10.347656 15.566406 -11.789062 14.359375 -12.96875 C 13.160156 -14.144531 11.710938 -14.734375 10.015625 -14.734375 Z M 10.015625 -14.734375 "/></g></g></g><g fill="#000000" fill-opacity="1"><g transform="translate(272.011394, 223.742111)"><g><path d="M 7.953125 -17.40625 C 10.191406 -17.40625 12.207031 -16.8125 14 -15.625 L 12.78125 -13.0625 C 11.019531 -14.132812 9.335938 -14.671875 7.734375 -14.671875 C 6.859375 -14.671875 6.164062 -14.507812 5.65625 -14.1875 C 5.15625 -13.875 4.90625 -13.429688 4.90625 -12.859375 C 4.90625 -12.285156 5.132812 -11.796875 5.59375 -11.390625 C 6.0625 -10.984375 6.640625 -10.6875 7.328125 -10.5 C 8.023438 -10.3125 8.773438 -10.070312 9.578125 -9.78125 C 10.378906 -9.5 11.125 -9.195312 11.8125 -8.875 C 12.507812 -8.550781 13.082031 -8.046875 13.53125 -7.359375 C 13.988281 -6.679688 14.21875 -5.859375 14.21875 -4.890625 C 14.21875 -3.367188 13.613281 -2.15625 12.40625 -1.25 C 11.195312 -0.351562 9.628906 0.09375 7.703125 0.09375 C 6.390625 0.09375 5.113281 -0.148438 3.875 -0.640625 C 2.644531 -1.128906 1.566406 -1.796875 0.640625 -2.640625 L 1.90625 -5.15625 C 2.769531 -4.351562 3.722656 -3.734375 4.765625 -3.296875 C 5.816406 -2.859375 6.8125 -2.640625 7.75 -2.640625 C 8.769531 -2.640625 9.5625 -2.820312 10.125 -3.1875 C 10.695312 -3.5625 10.984375 -4.078125 10.984375 -4.734375 C 10.984375 -5.328125 10.753906 -5.828125 10.296875 -6.234375 C 9.835938 -6.640625 9.257812 -6.9375 8.5625 -7.125 C 7.875 -7.3125 7.125 -7.539062 6.3125 -7.8125 C 5.507812 -8.082031 4.757812 -8.367188 4.0625 -8.671875 C 3.375 -8.984375 2.800781 -9.472656 2.34375 -10.140625 C 1.882812 -10.816406 1.65625 -11.632812 1.65625 -12.59375 C 1.65625 -14.050781 2.226562 -15.21875 3.375 -16.09375 C 4.53125 -16.96875 6.054688 -17.40625 7.953125 -17.40625 Z M 7.953125 -17.40625 "/></g></g></g><g fill="#000000" fill-opacity="1"><g transform="translate(290.452402, 223.742111)"><g/></g></g><g fill="#000000" fill-opacity="1"><g transform="translate(53.249389, 186.347099)"><g><path d="M 34.484375 -43.015625 L 34.484375 -35.859375 L 22.0625 -35.859375 L 22.0625 0 L 13.59375 0 L 13.59375 -35.859375 L 1.171875 -35.859375 L 1.171875 -43.015625 Z M 34.484375 -43.015625 "/></g></g></g><g fill="#000000" fill-opacity="1"><g transform="translate(88.906976, 186.347099)"><g><path d="M 4.671875 0 L 4.671875 -45.484375 L 12.828125 -45.484375 L 12.828125 -28.21875 L 13.4375 -28.09375 C 14.519531 -29.6875 15.84375 -30.910156 17.40625 -31.765625 C 18.976562 -32.628906 20.875 -33.0625 23.09375 -33.0625 C 30.25 -33.0625 33.828125 -29.003906 33.828125 -20.890625 L 33.828125 0 L 25.6875 0 L 25.6875 -19.859375 C 25.6875 -22.078125 25.242188 -23.6875 24.359375 -24.6875 C 23.472656 -25.6875 22.097656 -26.1875 20.234375 -26.1875 C 17.960938 -26.1875 16.160156 -25.425781 14.828125 -23.90625 C 13.492188 -22.382812 12.828125 -20.015625 12.828125 -16.796875 L 12.828125 0 Z M 4.671875 0 "/></g></g></g><g fill="#000000" fill-opacity="1"><g transform="translate(126.918199, 186.347099)"><g><path d="M 32.0625 -14.390625 L 11.203125 -14.390625 C 11.441406 -11.566406 12.25 -9.507812 13.625 -8.21875 C 15 -6.9375 16.867188 -6.296875 19.234375 -6.296875 C 21.097656 -6.296875 22.609375 -6.644531 23.765625 -7.34375 C 24.921875 -8.039062 25.851562 -9.09375 26.5625 -10.5 L 27.1875 -10.5 L 32.59375 -7.03125 C 31.53125 -4.757812 29.929688 -2.914062 27.796875 -1.5 C 25.660156 -0.0820312 22.804688 0.625 19.234375 0.625 C 15.878906 0.625 12.984375 -0.0078125 10.546875 -1.28125 C 8.109375 -2.5625 6.222656 -4.460938 4.890625 -6.984375 C 3.566406 -9.503906 2.90625 -12.578125 2.90625 -16.203125 C 2.90625 -19.890625 3.601562 -23 5 -25.53125 C 6.394531 -28.0625 8.273438 -29.945312 10.640625 -31.1875 C 13.015625 -32.4375 15.6875 -33.0625 18.65625 -33.0625 C 23.238281 -33.0625 26.75 -31.84375 29.1875 -29.40625 C 31.632812 -26.976562 32.859375 -23.410156 32.859375 -18.703125 C 32.859375 -17.003906 32.800781 -15.679688 32.6875 -14.734375 Z M 25.0625 -19.65625 C 24.988281 -22.125 24.414062 -23.921875 23.34375 -25.046875 C 22.269531 -26.171875 20.707031 -26.734375 18.65625 -26.734375 C 14.53125 -26.734375 12.109375 -24.375 11.390625 -19.65625 Z M 25.0625 -19.65625 "/></g></g></g><g fill="#000000" fill-opacity="1"><g transform="translate(162.193329, 186.347099)"><g/></g></g><g fill="#000000" fill-opacity="1"><g transform="translate(176.403415, 186.347099)"><g><path d="M 18.921875 0.625 C 15.773438 0.625 12.992188 -0.0234375 10.578125 -1.328125 C 8.171875 -2.640625 6.289062 -4.5625 4.9375 -7.09375 C 3.582031 -9.625 2.90625 -12.660156 2.90625 -16.203125 C 2.90625 -19.773438 3.582031 -22.828125 4.9375 -25.359375 C 6.289062 -27.890625 8.164062 -29.804688 10.5625 -31.109375 C 12.957031 -32.410156 15.691406 -33.0625 18.765625 -33.0625 C 25.609375 -33.0625 29.992188 -30.582031 31.921875 -25.625 L 26.328125 -21.625 L 25.71875 -21.625 C 25.050781 -23.15625 24.179688 -24.289062 23.109375 -25.03125 C 22.035156 -25.78125 20.585938 -26.15625 18.765625 -26.15625 C 16.410156 -26.15625 14.578125 -25.335938 13.265625 -23.703125 C 11.953125 -22.078125 11.296875 -19.578125 11.296875 -16.203125 C 11.296875 -12.867188 11.960938 -10.382812 13.296875 -8.75 C 14.628906 -7.113281 16.503906 -6.296875 18.921875 -6.296875 C 20.679688 -6.296875 22.171875 -6.769531 23.390625 -7.71875 C 24.617188 -8.675781 25.5 -10.046875 26.03125 -11.828125 L 26.65625 -11.890625 L 32.453125 -8.703125 C 31.628906 -5.960938 30.101562 -3.722656 27.875 -1.984375 C 25.644531 -0.242188 22.660156 0.625 18.921875 0.625 Z M 18.921875 0.625 "/></g></g></g><g fill="#000000" fill-opacity="1"><g transform="translate(209.854476, 186.347099)"><g><path d="M 18.859375 0.625 C 15.679688 0.625 12.890625 -0.0234375 10.484375 -1.328125 C 8.085938 -2.640625 6.222656 -4.554688 4.890625 -7.078125 C 3.566406 -9.597656 2.90625 -12.640625 2.90625 -16.203125 C 2.90625 -19.773438 3.566406 -22.828125 4.890625 -25.359375 C 6.222656 -27.890625 8.085938 -29.804688 10.484375 -31.109375 C 12.890625 -32.410156 15.679688 -33.0625 18.859375 -33.0625 C 22.035156 -33.0625 24.820312 -32.410156 27.21875 -31.109375 C 29.625 -29.804688 31.492188 -27.890625 32.828125 -25.359375 C 34.160156 -22.828125 34.828125 -19.773438 34.828125 -16.203125 C 34.828125 -12.640625 34.160156 -9.597656 32.828125 -7.078125 C 31.492188 -4.554688 29.625 -2.640625 27.21875 -1.328125 C 24.820312 -0.0234375 22.035156 0.625 18.859375 0.625 Z M 18.859375 -6.296875 C 23.898438 -6.296875 26.421875 -9.597656 26.421875 -16.203125 C 26.421875 -19.640625 25.769531 -22.15625 24.46875 -23.75 C 23.175781 -25.351562 21.304688 -26.15625 18.859375 -26.15625 C 13.816406 -26.15625 11.296875 -22.835938 11.296875 -16.203125 C 11.296875 -9.597656 13.816406 -6.296875 18.859375 -6.296875 Z M 18.859375 -6.296875 "/></g></g></g><g fill="#000000" fill-opacity="1"><g transform="translate(247.571494, 186.347099)"><g><path d="M 16.03125 0.625 C 13.457031 0.625 11.1875 0 9.21875 -1.25 C 7.25 -2.5 5.703125 -4.378906 4.578125 -6.890625 C 3.460938 -9.410156 2.90625 -12.515625 2.90625 -16.203125 C 2.90625 -19.910156 3.476562 -23.023438 4.625 -25.546875 C 5.78125 -28.066406 7.367188 -29.945312 9.390625 -31.1875 C 11.421875 -32.4375 13.769531 -33.0625 16.4375 -33.0625 C 18.457031 -33.0625 20.207031 -32.710938 21.6875 -32.015625 C 23.175781 -31.328125 24.429688 -30.242188 25.453125 -28.765625 L 26.0625 -28.921875 L 26.0625 -45.484375 L 34.21875 -45.484375 L 34.21875 0 L 26.0625 0 L 26.0625 -4.203125 L 25.453125 -4.328125 C 24.546875 -2.796875 23.304688 -1.585938 21.734375 -0.703125 C 20.171875 0.179688 18.269531 0.625 16.03125 0.625 Z M 18.6875 -6.296875 C 20.976562 -6.296875 22.789062 -7.113281 24.125 -8.75 C 25.457031 -10.382812 26.125 -12.867188 26.125 -16.203125 C 26.125 -19.546875 25.457031 -22.039062 24.125 -23.6875 C 22.789062 -25.332031 20.976562 -26.15625 18.6875 -26.15625 C 16.289062 -26.15625 14.457031 -25.351562 13.1875 -23.75 C 11.925781 -22.15625 11.296875 -19.640625 11.296875 -16.203125 C 11.296875 -12.796875 11.925781 -10.289062 13.1875 -8.6875 C 14.457031 -7.09375 16.289062 -6.296875 18.6875 -6.296875 Z M 18.6875 -6.296875 "/></g></g></g><g fill="#000000" fill-opacity="1"><g transform="translate(286.46533, 186.347099)"><g><path d="M 32.0625 -14.390625 L 11.203125 -14.390625 C 11.441406 -11.566406 12.25 -9.507812 13.625 -8.21875 C 15 -6.9375 16.867188 -6.296875 19.234375 -6.296875 C 21.097656 -6.296875 22.609375 -6.644531 23.765625 -7.34375 C 24.921875 -8.039062 25.851562 -9.09375 26.5625 -10.5 L 27.1875 -10.5 L 32.59375 -7.03125 C 31.53125 -4.757812 29.929688 -2.914062 27.796875 -1.5 C 25.660156 -0.0820312 22.804688 0.625 19.234375 0.625 C 15.878906 0.625 12.984375 -0.0078125 10.546875 -1.28125 C 8.109375 -2.5625 6.222656 -4.460938 4.890625 -6.984375 C 3.566406 -9.503906 2.90625 -12.578125 2.90625 -16.203125 C 2.90625 -19.890625 3.601562 -23 5 -25.53125 C 6.394531 -28.0625 8.273438 -29.945312 10.640625 -31.1875 C 13.015625 -32.4375 15.6875 -33.0625 18.65625 -33.0625 C 23.238281 -33.0625 26.75 -31.84375 29.1875 -29.40625 C 31.632812 -26.976562 32.859375 -23.410156 32.859375 -18.703125 C 32.859375 -17.003906 32.800781 -15.679688 32.6875 -14.734375 Z M 25.0625 -19.65625 C 24.988281 -22.125 24.414062 -23.921875 23.34375 -25.046875 C 22.269531 -26.171875 20.707031 -26.734375 18.65625 -26.734375 C 14.53125 -26.734375 12.109375 -24.375 11.390625 -19.65625 Z M 25.0625 -19.65625 "/></g></g></g></svg>